HIERARCHY
ROOT Hips
{
	OFFSET 0.000000 0.000000 0.000000
	CHANNELS 6 Xposition Yposition Zposition Xrotation Yrotation Zrotation
	JOINT LeftUpLeg_virtual
	{
		OFFSET 0.000000 0.000000 0.000000
		CHANNELS 3 Xrotation Yrotation Zrotation
		JOINT LeftUpLeg
		{
			OFFSET 13.026900 -6.336304 -1.092800
			CHANNELS 3 Xrotation Yrotation Zrotation
			JOINT LeftLeg
			{
				OFFSET 0.524474 -46.096886 9.782700
				CHANNELS 3 Xrotation Yrotation Zrotation
				JOINT LeftFoot
				{
					OFFSET -0.524474 -53.427422 -12.948200
					CHANNELS 3 Xrotation Yrotation Zrotation
					JOINT LeftToeBase
					{
						OFFSET 0.192200 -14.009700 16.364100
						CHANNELS 3 Xrotation Yrotation Zrotation
						JOINT LeftToe_End
						{
							OFFSET -1.784700 -0.561700 9.474800
							CHANNELS 3 Xrotation Yrotation Zrotation
							End Site
							{
								OFFSET 0 0 0
							}
						}
					}
				}
			}
		}
	}
	JOINT RightUpLeg_virtual
	{
		OFFSET 0.000000 0.000000 0.000000
		CHANNELS 3 Xrotation Yrotation Zrotation
		JOINT RightUpLeg
		{
			OFFSET -12.883000 -6.336304 -1.092800
			CHANNELS 3 Xrotation Yrotation Zrotation
			JOINT RightLeg
			{
				OFFSET -0.524587 -46.096825 9.782800
				CHANNELS 3 Xrotation Yrotation Zrotation
				JOINT RightFoot
				{
					OFFSET 0.524587 -53.427383 -12.948300
					CHANNELS 3 Xrotation Yrotation Zrotation
					JOINT RightToeBase
					{
						OFFSET -0.192200 -14.009700 16.364100
						CHANNELS 3 Xrotation Yrotation Zrotation
						JOINT RightToe_End
						{
							OFFSET 1.784700 -0.561700 9.474800
							CHANNELS 3 Xrotation Yrotation Zrotation
							End Site
							{
								OFFSET 0 0 0
							}
						}
					}
				}
			}
		}
	}
	JOINT Spine_virtual
	{
		OFFSET 0.000000 0.000000 0.000000
		CHANNELS 3 Xrotation Yrotation Zrotation
		JOINT Spine
		{
			OFFSET 0.072000 7.257294 -0.789700
			CHANNELS 3 Xrotation Yrotation Zrotation
			JOINT Spine1
			{
				OFFSET 0.000000 12.508769 -0.658067
				CHANNELS 3 Xrotation Yrotation Zrotation
				JOINT Spine1_split
				{
					OFFSET 0.000000 12.508769 -0.658067
					CHANNELS 3 Xrotation Yrotation Zrotation
					JOINT Spine2
					{
						OFFSET 0.000000 12.508769 -0.658067
						CHANNELS 3 Xrotation Yrotation Zrotation
						JOINT Neck_virtual
						{
							OFFSET 0.000000 0.000000 0.000000
							CHANNELS 3 Xrotation Yrotation Zrotation
							JOINT Neck
							{
								OFFSET 0.000000 14.033295 7.520400
								CHANNELS 3 Xrotation Yrotation Zrotation
								JOINT Head
								{
									OFFSET 0.000000 8.198502 5.703100
									CHANNELS 3 Xrotation Yrotation Zrotation
									JOINT HeadTop_End
									{
										OFFSET 0.000000 17.760803 13.332701
										CHANNELS 3 Xrotation Yrotation Zrotation
										End Site
										{
											OFFSET 0 0 0
										}
									}
								}
							}
						}
						JOINT LeftShoulder_virtual
						{
							OFFSET 0.000000 0.000000 0.000000
							CHANNELS 3 Xrotation Yrotation Zrotation
							JOINT LeftShoulder
							{
								OFFSET 6.292450 5.785301 -0.669000
								CHANNELS 3 Xrotation Yrotation Zrotation
								JOINT LeftShoulder_split
								{
									OFFSET 6.292450 5.785301 -0.669000
									CHANNELS 3 Xrotation Yrotation Zrotation
									JOINT LeftArm
									{
										OFFSET 13.907140 -6.093903 1.965100
										CHANNELS 3 Xrotation Yrotation Zrotation
										JOINT LeftForeArm
										{
											OFFSET 34.140198 0.000000 0.000000
											CHANNELS 3 Xrotation Yrotation Zrotation
											JOINT LeftHand
											{
												OFFSET 40.960209 0.000000 0.000000
												CHANNELS 3 Xrotation Yrotation Zrotation
												End Site
												{
													OFFSET 0 0 0
												}
											}
										}
									}
								}
							}
						}
						JOINT RightShoulder_virtual
						{
							OFFSET 0.000000 0.000000 0.000000
							CHANNELS 3 Xrotation Yrotation Zrotation
							JOINT RightShoulder
							{
								OFFSET -6.292450 5.785301 -0.669000
								CHANNELS 3 Xrotation Yrotation Zrotation
								JOINT RightShoulder_split
								{
									OFFSET -6.292450 5.785301 -0.669000
									CHANNELS 3 Xrotation Yrotation Zrotation
									JOINT RightArm
									{
										OFFSET -13.907140 -6.093903 1.965100
										CHANNELS 3 Xrotation Yrotation Zrotation
										JOINT RightForeArm
										{
											OFFSET -34.140198 0.000000 0.000000
											CHANNELS 3 Xrotation Yrotation Zrotation
											JOINT RightHand
											{
												OFFSET -40.960209 0.000000 0.000000
												CHANNELS 3 Xrotation Yrotation Zrotation
												End Site
												{
													OFFSET 0 0 0
												}
											}
										}
									}
								}
							}
						}
					}
				}
			}
		}
	}
}
MOTION
Frames: 10
Frame Time: 0.03333333
-0.753124 96.610771 -4.148165 0.000000 0.000000 0.000000 -14.363946 2.070483 0.486082 -21.603320 -3.743849 15.172056 58.123141 -1.034097 0.649982 -18.067379 -1.052808 -12.456997 -1.785838 -0.586681 0.515059 0.000000 0.000000 0.000000 -14.920798 1.841845 0.592928 -14.474629 -4.638704 -15.688704 54.992780 0.979853 0.126329 -23.453990 -4.968578 10.796973 0.058942 0.278289 -0.172891 0.000000 0.000000 0.000000 -14.545212 0.605927 0.097836 18.404375 0.697172 2.313374 4.395248 -0.109648 0.196218 2.177900 3.516823 -0.189113 0.000000 0.000000 0.000000 5.430044 -0.214238 0.625657 -12.426861 -1.670257 1.033772 -17.516273 -1.734185 -0.088406 0.000000 0.000000 0.000000 5.772668 -0.091153 0.940931 4.288922 -9.497112 -3.878425 -4.293745 -0.367111 -4.104677 -8.526552 -15.468123 -56.626312 67.652710 -60.287402 68.698862 0.000000 0.000000 0.000000 5.674554 -0.240555 0.089539 11.066751 -7.141248 17.502739 2.263314 1.278634 1.076193 -23.768573 17.746758 58.720516 88.006632 60.158756 -81.674371 0.000000 0.000000 0.000000 
-0.885024 96.716095 -3.979574 0.000000 0.000000 0.000000 -14.437669 2.191561 0.416029 -21.581033 -3.967634 15.195991 58.052653 -1.051866 0.623238 -18.100889 -1.105323 -12.466251 -1.711141 -0.570967 0.541585 0.000000 0.000000 0.000000 -15.067961 2.142419 0.540962 -14.184787 -4.571439 -15.621920 55.230600 1.024734 0.111056 -23.565835 -4.965287 10.694708 0.287954 0.303110 -0.187044 0.000000 0.000000 0.000000 -14.652678 0.900588 0.054975 18.265355 0.603358 2.222265 4.469761 -0.156288 0.235228 2.061047 3.854794 0.071603 0.000000 0.000000 0.000000 5.476870 -0.275902 0.672958 -12.582270 -1.586581 0.839156 -17.869127 -1.336600 -0.331684 0.000000 0.000000 0.000000 5.803715 -0.111056 0.987691 4.382308 -9.504648 -3.615583 -3.813143 -0.601235 -4.560083 -10.460030 -15.833051 -58.548928 64.638185 -59.349925 65.803245 0.000000 0.000000 0.000000 5.805618 -0.255292 0.136396 10.809660 -7.133384 17.726504 2.362071 0.535877 2.487608 -23.473858 16.499726 59.331046 86.308866 61.310797 -80.489954 0.000000 0.000000 0.000000 
-1.026987 96.924065 -3.870085 0.000000 0.000000 0.000000 -14.698299 2.333554 0.384169 -21.449477 -4.157511 15.073322 57.999979 -1.044820 0.607964 -18.221176 -1.076453 -12.531996 -1.616659 -0.515949 0.527073 0.000000 0.000000 0.000000 -15.345625 2.391209 0.472668 -13.605343 -4.630373 -15.585670 55.283281 1.167802 0.034536 -23.577603 -5.063506 10.787554 0.207090 0.306906 -0.204075 0.000000 0.000000 0.000000 -14.944328 1.308641 0.018747 18.356413 0.428106 1.954846 4.664840 -0.100119 0.281094 1.609471 3.443878 0.301251 0.000000 0.000000 0.000000 5.638894 -0.211259 0.620641 -12.121658 -1.455434 0.483472 -18.553065 -1.067436 -0.572176 0.000000 0.000000 0.000000 5.906467 -0.032438 0.992795 4.091603 -10.134613 -3.437352 -3.606671 -1.415306 -3.988062 -10.947451 -15.472057 -58.846676 58.175214 -59.717259 59.691974 0.000000 0.000000 0.000000 6.117832 -0.135249 0.214147 10.369591 -6.848759 17.867946 0.980896 -0.172943 2.574807 -21.346288 17.283331 58.312159 82.865412 64.937989 -78.301125 0.000000 0.000000 0.000000 
-1.141595 97.208458 -3.831804 0.000000 0.000000 0.000000 -15.108336 2.478861 0.394422 -21.178397 -4.228233 14.788316 57.961224 -0.984024 0.626208 -18.346967 -0.968273 -12.574645 -1.552678 -0.435654 0.471318 0.000000 0.000000 0.000000 -15.683974 2.564666 0.431167 -12.769144 -4.801319 -15.582124 55.094430 1.318416 -0.061340 -23.614406 -5.289098 10.881244 -0.040006 0.286312 -0.192859 0.000000 0.000000 0.000000 -15.386075 1.647879 0.054965 18.644555 0.176181 1.588368 4.918202 0.021507 0.302199 1.011840 2.563104 0.816994 0.000000 0.000000 0.000000 5.887091 -0.083450 0.503713 -10.900351 -1.257584 -0.028765 -19.184861 -0.822972 -0.885537 0.000000 0.000000 0.000000 6.041477 0.089472 0.965590 3.544973 -11.125693 -3.087438 -3.407114 -2.710059 -2.874448 -9.533930 -14.634498 -56.686206 50.420883 -61.922283 52.299817 0.000000 0.000000 0.000000 6.488118 0.029119 0.286614 9.861433 -6.349305 17.667705 -1.278383 -0.796704 1.842060 -16.748274 19.464325 54.949418 79.852554 70.729860 -76.734491 0.000000 0.000000 0.000000 
-1.212879 97.593941 -3.797941 0.000000 0.000000 0.000000 -15.632835 2.581281 0.488476 -20.737733 -4.167325 14.360606 57.798980 -0.861861 0.681447 -18.386126 -0.818545 -12.511745 -1.553679 -0.351642 0.390152 0.000000 0.000000 0.000000 -16.029009 2.738774 0.477710 -11.802410 -5.055385 -15.589396 54.565831 1.365192 -0.139173 -23.661732 -5.633339 10.786620 -0.203053 0.251896 -0.143047 0.000000 0.000000 0.000000 -15.959536 1.874908 0.180439 19.022640 -0.173065 1.207806 5.132072 0.130165 0.300728 0.132251 1.565538 1.292680 0.000000 0.000000 0.000000 6.206946 0.010340 0.348698 -8.694594 -0.963723 -0.661989 -19.403690 -0.582061 -1.216827 0.000000 0.000000 0.000000 6.176096 0.169480 0.933909 2.933711 -12.214578 -2.314143 -3.401582 -3.413380 -2.101286 -6.293644 -13.676922 -51.824614 41.888546 -66.178174 44.106718 0.000000 0.000000 0.000000 6.846362 0.123018 0.352912 9.342102 -5.795446 16.893023 -2.994733 -0.924176 0.644252 -9.483071 21.575924 49.109904 77.291855 77.823264 -75.197282 0.000000 0.000000 0.000000 
-1.240711 98.136711 -3.820135 0.000000 0.000000 0.000000 -16.158325 2.636942 0.673181 -20.106118 -4.059918 13.832024 57.412207 -0.712439 0.788284 -18.221545 -0.711398 -12.348415 -1.616945 -0.286062 0.304544 0.000000 0.000000 0.000000 -16.321610 2.953460 0.651957 -10.885570 -5.337917 -15.600176 53.682323 1.302718 -0.169977 -23.606642 -6.004698 10.537397 -0.187720 0.220305 -0.061544 0.000000 0.000000 0.000000 -16.570638 1.997774 0.415447 19.369604 -0.614666 0.894033 5.244282 0.143068 0.290217 -0.836157 0.732466 1.323644 0.000000 0.000000 0.000000 6.550378 0.026272 0.223824 -5.341323 -0.612007 -1.345035 -18.955136 -0.366156 -1.581389 0.000000 0.000000 0.000000 6.277977 0.141482 0.929030 2.490060 -13.187682 -1.033233 -3.156087 -3.643913 -1.929642 -1.761258 -12.698892 -44.394348 31.452198 -72.148320 33.922592 0.000000 0.000000 0.000000 7.106431 0.092189 0.427288 8.821468 -5.156952 15.338727 -3.978629 -0.663597 -0.249926 -0.888055 21.677038 41.447780 66.429730 84.853414 -64.651074 0.000000 0.000000 0.000000 
-1.247931 98.805222 -3.932451 0.000000 0.000000 0.000000 -16.636046 2.659827 0.919731 -19.350474 -3.981630 13.301852 56.734666 -0.596452 0.941880 -17.762639 -0.684420 -12.167810 -1.687744 -0.252171 0.230281 0.000000 0.000000 0.000000 -16.565476 3.237345 0.940925 -10.104981 -5.614603 -15.647256 52.514043 1.210202 -0.179815 -23.329652 -6.289957 10.342332 -0.119411 0.210685 0.004599 0.000000 0.000000 0.000000 -17.139489 2.117569 0.696331 19.598145 -1.137436 0.672698 5.338233 0.033274 0.282463 -1.310632 0.842856 1.135261 0.000000 0.000000 0.000000 6.832805 -0.081499 0.196343 -0.801411 -0.259399 -1.998210 -17.869617 -0.148312 -1.864689 0.000000 0.000000 0.000000 6.400897 -0.001061 0.933530 2.400808 -13.936528 0.730317 -2.593077 -4.090180 -2.191574 3.665145 -11.399655 -35.044164 14.670205 -77.959451 17.229881 0.000000 0.000000 0.000000 7.154671 -0.061305 0.556707 8.252138 -4.302527 13.175665 -4.334086 -0.017487 -0.645047 6.032606 19.088767 33.752678 -35.752649 86.963847 37.719590 0.000000 0.000000 0.000000 
-1.168250 99.511810 -4.078577 0.000000 0.000000 0.000000 -17.020691 2.744759 1.161456 -18.572623 -3.996986 12.860153 55.815391 -0.572801 1.106401 -17.062823 -0.753546 -12.051334 -1.721504 -0.249553 0.177331 0.000000 0.000000 0.000000 -16.753448 3.529447 1.228209 -9.539916 -5.830553 -15.723995 51.206256 1.165246 -0.210648 -22.819114 -6.401540 10.377037 -0.110874 0.232416 0.016040 0.000000 0.000000 0.000000 -17.558279 2.308596 0.869661 19.719086 -1.704131 0.574488 5.483901 -0.178176 0.301771 -0.986439 1.424814 0.858004 0.000000 0.000000 0.000000 6.947685 -0.299162 0.304509 4.735450 0.017740 -2.567331 -16.256456 -0.012185 -2.044718 0.000000 0.000000 0.000000 6.551469 -0.247687 0.925585 2.637943 -14.354761 2.645562 -2.189389 -4.451480 -2.256384 8.375395 -9.225817 -25.290138 -12.013805 -80.610207 -9.474149 0.000000 0.000000 0.000000 7.012186 -0.264156 0.733918 7.605173 -3.359491 10.709393 -3.964815 0.740559 -0.651067 8.049007 14.779882 27.320946 -64.777043 82.226858 67.064275 0.000000 0.000000 0.000000 
-0.948858 100.098694 -4.349791 0.000000 0.000000 0.000000 -17.254535 2.908772 1.287549 -17.984399 -4.125129 12.550737 54.908242 -0.622529 1.231472 -16.277251 -0.896934 -12.018368 -1.700786 -0.273815 0.146307 0.000000 0.000000 0.000000 -16.880616 3.795035 1.374593 -9.212848 -5.962921 -15.802792 50.067718 1.206186 -0.274244 -22.298700 -6.307059 10.650708 -0.174719 0.284998 -0.015457 0.000000 0.000000 0.000000 -17.727934 2.543648 0.834104 19.866440 -2.198118 0.629971 5.794741 -0.421244 0.380935 -0.066529 1.935732 0.578893 0.000000 0.000000 0.000000 6.905652 -0.554575 0.560462 10.906422 0.170185 -3.005158 -14.252507 0.059402 -2.089788 0.000000 0.000000 0.000000 6.800664 -0.508729 0.906177 3.041706 -14.337721 4.329260 -1.873389 -4.480059 -1.913478 9.712964 -6.343317 -16.739672 -32.486152 -80.207424 -29.973534 0.000000 0.000000 0.000000 6.828003 -0.434775 0.920831 6.888884 -2.501889 8.431682 -3.217398 1.003071 -0.764262 3.449132 10.717335 22.525093 -74.810270 78.775208 77.307441 0.000000 0.000000 0.000000 
-0.647862 100.353088 -4.727995 0.000000 0.000000 0.000000 -17.338171 3.192830 1.223079 -17.800129 -4.330033 12.402431 54.332652 -0.686249 1.277533 -15.673145 -1.056747 -11.986716 -1.651452 -0.314856 0.130634 0.000000 0.000000 0.000000 -16.966180 4.014155 1.315876 -9.199190 -5.961919 -15.862699 49.455218 1.319861 -0.363780 -22.039943 -6.038860 11.056005 -0.265555 0.347469 -0.058981 0.000000 0.000000 0.000000 -17.623522 2.814131 0.578024 20.187222 -2.506901 0.807017 6.362991 -0.595449 0.547391 0.915619 1.804000 0.406672 0.000000 0.000000 0.000000 6.895727 -0.757942 0.907442 17.141856 0.175464 -3.290387 -12.120440 -0.008986 -2.002866 0.000000 0.000000 0.000000 7.277728 -0.688802 0.916984 3.417557 -13.908527 5.495808 -2.165494 -3.906973 -1.674735 5.418473 -3.537368 -10.496303 -40.556584 -79.705104 -37.977098 0.000000 0.000000 0.000000 6.800405 -0.535317 1.112959 6.201575 -1.807480 6.874408 -2.411355 0.959190 -1.132073 -8.139553 8.439373 19.780969 -89.397532 76.873670 91.986222 0.000000 0.000000 0.000000 
